<svg width="24" height="17" viewBox="0 0 24 17" fill="none" xmlns="http://www.w3.org/2000/svg">
<g clip-path="url(#clip0_2257_4013)">
<path d="M23.2329 2.60545C23.0966 2.10185 22.8308 1.64275 22.4619 1.27384C22.093 0.904934 21.6339 0.639099 21.1303 0.502807C19.2867 0 11.8667 0 11.8667 0C11.8667 0 4.4464 0.0152197 2.60277 0.518026C2.09918 0.654326 1.64007 0.920175 1.27118 1.2891C0.90229 1.65802 0.636481 2.11715 0.500226 2.62076C-0.0574272 5.89652 -0.273751 10.888 0.515539 14.0327C0.651808 14.5363 0.917623 14.9954 1.28651 15.3644C1.6554 15.7333 2.1145 15.9991 2.61808 16.1354C4.46171 16.6382 11.8819 16.6382 11.8819 16.6382C11.8819 16.6382 19.3019 16.6382 21.1455 16.1354C21.6491 15.9991 22.1082 15.7333 22.4771 15.3644C22.846 14.9955 23.1118 14.5363 23.2481 14.0327C23.8363 10.7523 24.0175 5.7639 23.2329 2.60545Z" fill="#FF0000"/>
<path d="M9.50513 11.8845L15.6606 8.31921L9.50513 4.75391V11.8845Z" fill="#B7CABF"/>
</g>
<defs>
<clipPath id="clip0_2257_4013">
<rect width="23.7576" height="16.7045" fill="white"/>
</clipPath>
</defs>
</svg>
